<?xml version="1.0" encoding="utf-8"?>
<!-- Generator: Adobe Illustrator 21.0.0, SVG Export Plug-In . SVG Version: 6.00 Build 0)  -->
<svg version="1.1" id="Слой_1" xmlns="http://www.w3.org/2000/svg" xmlns:xlink="http://www.w3.org/1999/xlink" x="0px" y="0px"
	 viewBox="0 0 340.2 170.1" style="enable-background:new 0 0 340.2 170.1;" xml:space="preserve">
<style type="text/css">
	.st0{fill:none;stroke:#546D7F;stroke-miterlimit:10;}
	.st1{fill:none;stroke:#546D7F;stroke-width:2;stroke-miterlimit:10;}
	.st2{fill:none;stroke:#546D7F;stroke-width:0.75;stroke-miterlimit:10;}
</style>
<g>
	<rect x="127.7" y="26.5" class="st0" width="82.1" height="4.1"/>
	<polyline class="st0" points="110.7,5.6 124.9,27 127.7,27 	"/>
	<polyline class="st0" points="226.8,5.6 212.6,27 209.8,27 	"/>
	<path class="st0" d="M182.4,129.5c0,0-9.1,2.4-9.1,12.1l0,0l-8.7,0c0-9.7-9.2-12-9.2-12"/>
	<path class="st1" d="M166.2,91.5"/>
	<path class="st2" d="M116.1,109.8"/>
	<g>
		<path class="st1" d="M168.8,141.6l-4.2,0c0-9.7-9.2-12-9.2-12l0-3.1l-12.8-19.2V69.6l-12.9-19.3l-8.1-2.2v-18l6.1,0l0-3.1l-2.8,0
			L110.8,5.6"/>
	</g>
	<g>
		<path class="st1" d="M168.8,141.6l4.6,0c0-9.7,9.2-12,9.2-12l0-3.1l12.8-19.2V69.6l12.9-19.3l8.1-2.2v-18l-6.1,0l0-3.1l2.8,0
			l14.2-21.3"/>
	</g>
	<polyline class="st2" points="109.7,126.5 169,163.5 228.3,126.5 	"/>
	<polyline class="st2" points="109.7,154.6 169,163.8 228.3,154.6 	"/>
	<line class="st2" x1="122.1" y1="47.1" x2="215.8" y2="47.1"/>
	<line class="st2" x1="130.1" y1="49.7" x2="208.8" y2="49.7"/>
	<line class="st2" x1="143.6" y1="69.2" x2="194.3" y2="69.2"/>
	<line class="st2" x1="155.3" y1="126.1" x2="182.4" y2="126.1"/>
	<line class="st2" x1="155.8" y1="128.6" x2="181.7" y2="128.6"/>
	<line class="st2" x1="143.1" y1="106.7" x2="194.6" y2="106.7"/>
	<path class="st2" d="M168.6,100.9L168.6,100.9c-1.9,0-3.4-1.5-3.4-3.4v-19c0-1.9,1.5-3.4,3.4-3.4l0,0c1.9,0,3.4,1.5,3.4,3.4v19
		C172,99.3,170.5,100.9,168.6,100.9z"/>
	<g>
		<line class="st2" x1="124.4" y1="30.7" x2="124.4" y2="47"/>
		<line class="st2" x1="128.5" y1="30.7" x2="128.5" y2="47"/>
		<line class="st2" x1="135.4" y1="30.7" x2="135.4" y2="47"/>
		<line class="st2" x1="147.6" y1="30.7" x2="147.6" y2="47"/>
		<line class="st2" x1="169.2" y1="30.9" x2="169.2" y2="47.2"/>
	</g>
	<g>
		<line class="st2" x1="214" y1="30.7" x2="214" y2="47"/>
		<line class="st2" x1="209.8" y1="30.7" x2="209.8" y2="47"/>
		<line class="st2" x1="203" y1="30.7" x2="203" y2="47"/>
		<line class="st2" x1="190.7" y1="30.7" x2="190.7" y2="47"/>
	</g>
	<line class="st2" x1="127.7" y1="149.3" x2="169.2" y2="163.6"/>
	<line class="st2" x1="208.6" y1="149.3" x2="168.9" y2="163.7"/>
	<line class="st2" x1="169.3" y1="145.8" x2="169.2" y2="163.4"/>
	<line class="st2" x1="99.5" y1="122.9" x2="108.6" y2="121.4"/>
	<line class="st2" x1="104.8" y1="126.7" x2="103.4" y2="117.6"/>
	<line class="st2" x1="119.7" y1="150" x2="127.7" y2="145.3"/>
	<line class="st2" x1="126" y1="151.7" x2="121.4" y2="143.7"/>
	<line class="st2" x1="100.4" y1="157.1" x2="107.7" y2="151.4"/>
	<line class="st2" x1="106.9" y1="157.9" x2="101.2" y2="150.6"/>
	<line class="st2" x1="238.2" y1="123.6" x2="229" y2="122.1"/>
	<line class="st2" x1="232.9" y1="127.4" x2="234.3" y2="118.3"/>
	<line class="st2" x1="218" y1="150.7" x2="210" y2="146.1"/>
	<line class="st2" x1="211.7" y1="152.4" x2="216.3" y2="144.4"/>
	<line class="st2" x1="237.2" y1="157.8" x2="230" y2="152.1"/>
	<line class="st2" x1="230.8" y1="158.6" x2="236.4" y2="151.3"/>
</g>
</svg>
