<?xml version="1.0" encoding="utf-8"?>
<!-- Generator: Adobe Illustrator 21.0.0, SVG Export Plug-In . SVG Version: 6.00 Build 0)  -->
<svg version="1.1" id="Слой_1" xmlns="http://www.w3.org/2000/svg" xmlns:xlink="http://www.w3.org/1999/xlink" x="0px" y="0px"
	 viewBox="0 0 340.2 170.1" style="enable-background:new 0 0 340.2 170.1;" xml:space="preserve">
<style type="text/css">
	.st0{fill:none;stroke:#546D7F;stroke-width:0.75;stroke-miterlimit:10;}
	.st1{fill:none;stroke:#546D7F;stroke-width:2;stroke-miterlimit:10;}
</style>
<g>
	<line class="st0" x1="130" y1="22.2" x2="210.2" y2="22.2"/>
	<line class="st0" x1="150.7" y1="102.7" x2="188.2" y2="102.7"/>
	<line class="st0" x1="150.7" y1="111.2" x2="188.2" y2="111.2"/>
	<line class="st0" x1="175.3" y1="165.4" x2="234.6" y2="128.3"/>
	<line class="st0" x1="105.9" y1="128.3" x2="165.3" y2="165.4"/>
	<line class="st0" x1="175.2" y1="165.7" x2="234.6" y2="156.5"/>
	<line class="st0" x1="105.9" y1="156.5" x2="165.2" y2="165.7"/>
	<line class="st0" x1="124" y1="151.1" x2="165.5" y2="165.5"/>
	<line class="st0" x1="214.8" y1="151.2" x2="175.2" y2="165.6"/>
	<line class="st1" x1="168.5" y1="147.6" x2="168.4" y2="165.3"/>
	<line class="st1" x1="171.5" y1="147.6" x2="171.5" y2="165.3"/>
	<line class="st0" x1="95.8" y1="124.8" x2="104.9" y2="123.3"/>
	<line class="st0" x1="101" y1="128.6" x2="99.6" y2="119.4"/>
	<line class="st0" x1="115.9" y1="151.8" x2="123.9" y2="147.2"/>
	<line class="st0" x1="122.2" y1="153.5" x2="117.6" y2="145.5"/>
	<line class="st0" x1="96.7" y1="158.9" x2="103.9" y2="153.2"/>
	<line class="st0" x1="103.1" y1="159.7" x2="97.5" y2="152.4"/>
	<line class="st0" x1="244.4" y1="125.5" x2="235.3" y2="124"/>
	<line class="st0" x1="239.1" y1="129.3" x2="240.6" y2="120.2"/>
	<line class="st0" x1="224.2" y1="152.6" x2="216.2" y2="147.9"/>
	<line class="st0" x1="217.9" y1="154.2" x2="222.5" y2="146.2"/>
	<line class="st0" x1="243.5" y1="159.7" x2="236.2" y2="153.9"/>
	<line class="st0" x1="237" y1="160.4" x2="242.7" y2="153.1"/>
	<path class="st1" d="M127,63"/>
	<polyline class="st1" points="127,55.9 127,24.2 129.9,22.2 127,20.3 127,6.4 212.8,6.4 212.8,20.3 210.2,22.2 212.8,24.2 
		212.8,55.9 	"/>
	<circle class="st1" cx="202.6" cy="48.5" r="4.2"/>
	<rect x="130" y="80.8" class="st1" width="17.4" height="15.9"/>
	<line class="st0" x1="142.2" y1="80.8" x2="142.2" y2="96.7"/>
	
		<rect x="191.5" y="80.8" transform="matrix(-1 -1.224647e-16 1.224647e-16 -1 400.5074 177.5506)" class="st1" width="17.4" height="15.9"/>
	<line class="st0" x1="196.8" y1="80.8" x2="196.8" y2="96.7"/>
	<rect x="150.8" y="80.8" class="st1" width="37.4" height="38.5"/>
	<rect x="148.1" y="119.3" class="st1" width="42.8" height="15.7"/>
	<g>
		<line class="st0" x1="151.7" y1="119.8" x2="151.7" y2="135.4"/>
		<line class="st0" x1="156.6" y1="119.8" x2="156.6" y2="135.4"/>
		<line class="st0" x1="163.7" y1="119.9" x2="163.7" y2="135.4"/>
		<line class="st0" x1="175.2" y1="120.1" x2="175.2" y2="135.6"/>
	</g>
	<g>
		<line class="st0" x1="186.7" y1="119.8" x2="186.7" y2="135.4"/>
		<line class="st0" x1="181.2" y1="119.8" x2="181.2" y2="135.4"/>
	</g>
	<polyline class="st1" points="150.7,135 156.6,143.3 183.3,143.3 188.5,135.4 	"/>
	<path class="st1" d="M197.8,55.9c0,5.1-4.1,9.1-9.1,9.1h-38.3c-5.1,0-9.1-4.1-9.1-9.1l0,0h-19v24.8h94.4V55.9L197.8,55.9
		L197.8,55.9z"/>
	<line class="st0" x1="140.3" y1="55.9" x2="140.3" y2="80.7"/>
	<line class="st0" x1="199" y1="55.9" x2="199" y2="80.7"/>
</g>
</svg>
