<?xml version="1.0" encoding="utf-8"?>
<!-- Generator: Adobe Illustrator 21.0.0, SVG Export Plug-In . SVG Version: 6.00 Build 0)  -->
<svg version="1.1" id="Слой_1" xmlns="http://www.w3.org/2000/svg" xmlns:xlink="http://www.w3.org/1999/xlink" x="0px" y="0px"
	 viewBox="0 0 340.2 170.1" style="enable-background:new 0 0 340.2 170.1;" xml:space="preserve">
<style type="text/css">
	.st0{fill:none;stroke:#546D7F;stroke-width:2;stroke-miterlimit:10;}
	.st1{fill:none;stroke:#546D7F;stroke-width:0.75;stroke-miterlimit:10;}
</style>
<g>
	<polyline class="st0" points="199.1,2.2 199.1,45.5 93,45.5 93,2.2 	"/>
	<polyline class="st0" points="194.5,44.9 194.5,80.1 97.6,80.1 97.6,44.9 	"/>
	<polyline class="st0" points="188.9,80.8 188.9,96.6 103.1,96.6 103.1,80.8 	"/>
	<line class="st1" x1="199.1" y1="65.4" x2="243.9" y2="0.6"/>
	<line class="st1" x1="199.3" y1="65.8" x2="256.5" y2="29.7"/>
	<line class="st1" x1="233.7" y1="33.1" x2="199.2" y2="65.7"/>
	<polyline class="st0" points="140.5,96.6 131.1,113.9 112.4,127.6 112.4,145.6 	"/>
	<polyline class="st0" points="149.3,96.6 158.7,113.9 177.5,127.6 177.5,145.6 	"/>
	<line class="st1" x1="112.4" y1="127.6" x2="177.5" y2="127.6"/>
	<line class="st1" x1="112.7" y1="145.2" x2="177.7" y2="145.2"/>
	<line class="st1" x1="112.7" y1="147.8" x2="177.7" y2="147.8"/>
	<line class="st1" x1="112.7" y1="150.8" x2="177.7" y2="150.8"/>
	<line class="st1" x1="112.7" y1="153.6" x2="177.7" y2="153.6"/>
	<line class="st1" x1="112.7" y1="156.2" x2="177.7" y2="156.2"/>
	<line class="st1" x1="112.7" y1="159.2" x2="177.7" y2="159.2"/>
	<line class="st1" x1="131.3" y1="114.1" x2="159.1" y2="114.1"/>
	<polyline class="st1" points="142.4,102.3 139.5,114.1 133.1,123.5 	"/>
	<line class="st1" x1="113.5" y1="45.5" x2="113.5" y2="74.1"/>
	<line class="st1" x1="117.2" y1="80.1" x2="117.2" y2="53.4"/>
	<line class="st1" x1="115.3" y1="80.8" x2="115.3" y2="92.5"/>
	<line class="st1" x1="108.2" y1="4" x2="108.2" y2="44.9"/>
	<line class="st1" x1="128.5" y1="4" x2="128.5" y2="45.5"/>
	<line class="st0" x1="112.4" y1="158.7" x2="112.4" y2="169"/>
	<line class="st0" x1="177.5" y1="158.7" x2="177.5" y2="169"/>
	<line class="st1" x1="130.5" y1="127.6" x2="130.5" y2="145.2"/>
	<line class="st1" x1="130.5" y1="159.2" x2="130.5" y2="169"/>
	<line class="st1" x1="132.3" y1="145.6" x2="132.3" y2="159.3"/>
	<polyline class="st0" points="227.9,147.6 216.2,147.6 216.2,68.3 259.3,68.3 	"/>
	<rect x="204.9" y="70.5" class="st0" width="11.4" height="25.6"/>
	<polyline class="st0" points="204.9,83.8 192,83.8 196.4,92.5 204.9,92.5 	"/>
	<circle class="st0" cx="226.7" cy="78.4" r="3.5"/>
</g>
</svg>
