<?xml version="1.0" encoding="utf-8"?>
<!-- Generator: Adobe Illustrator 21.0.0, SVG Export Plug-In . SVG Version: 6.00 Build 0)  -->
<svg version="1.1" id="Слой_1" xmlns="http://www.w3.org/2000/svg" xmlns:xlink="http://www.w3.org/1999/xlink" x="0px" y="0px"
	 viewBox="0 0 340.2 170.1" style="enable-background:new 0 0 340.2 170.1;" xml:space="preserve">
<style type="text/css">
	.st0{fill:none;stroke:#546D7F;stroke-width:0.75;stroke-miterlimit:10;}
	.st1{fill:none;stroke:#546D7F;stroke-width:2;stroke-miterlimit:10;}
</style>
<g>
	<line class="st0" x1="149" y1="30.2" x2="191.5" y2="30.2"/>
	<line class="st0" x1="142.6" y1="35.3" x2="198.2" y2="35.3"/>
	<line class="st0" x1="142.6" y1="78" x2="198.2" y2="78"/>
	<line class="st0" x1="149.3" y1="120" x2="190.7" y2="120"/>
	<line class="st0" x1="152.7" y1="98.4" x2="152.7" y2="119.8"/>
	<line class="st0" x1="159.2" y1="97.6" x2="159.2" y2="119.9"/>
	<line class="st0" x1="180.8" y1="119.8" x2="180.8" y2="98.4"/>
	<line class="st0" x1="187.3" y1="119.9" x2="187.3" y2="97.6"/>
	<line class="st0" x1="170" y1="97.9" x2="170" y2="120"/>
	<path class="st1" d="M173.7,143l-13.5,0c0-17.8-11.7-22.1-11.7-22.1V97.1h42.9v23.7c0,0-12.2,4.3-12.2,22.1L173.7,143"/>
	<line class="st1" x1="141.7" y1="74.4" x2="141.7" y2="58.2"/>
	<path class="st1" d="M141.7,58.2V34.7l6.7-5.2l0-18.9c5.4-2.3,13-3.8,21.5-3.8c8.5,0,16.1,1.5,21.5,3.8l0,18.9l6.7,5.2v43.8
		l-10.6,14.9h-35.4l-10.6-15v-4.1"/>
	<line class="st0" x1="160.6" y1="12.2" x2="160.6" y2="30.2"/>
	<line class="st0" x1="123.6" y1="56.2" x2="123.6" y2="74.2"/>
	<line class="st0" x1="126.4" y1="57" x2="126.4" y2="71.4"/>
	<line class="st0" x1="180" y1="12.2" x2="180" y2="30.2"/>
	<path class="st0" d="M149,12.3c1.3-0.6,3.4-0.9,5.9-0.9c2.4,0,4.5,0.3,5.7,0.9"/>
	<path class="st0" d="M160.6,12.3c2.1-0.9,5.7-1.5,9.7-1.5c3.9,0,7.4,0.6,9.5,1.4"/>
	<path class="st0" d="M179.9,12.3c1.3-0.6,3.4-0.9,5.9-0.9c2.4,0,4.5,0.3,5.7,0.9"/>
	<polyline class="st1" points="140.7,58.2 127.1,58.2 124.5,55.1 108.2,55.1 108.2,73.6 124.5,73.6 127.1,70.6 140.7,70.6 	"/>
	<path class="st1" d="M95.8,56.2c0,0,5.4,4.2,12.4,4.8"/>
	<path class="st1" d="M95.8,64.4c0,0,4.8,3.3,12.4,4"/>
	<polyline class="st0" points="120.1,133.3 170,164.5 219.9,133.3 	"/>
	<line class="st0" x1="135.2" y1="155.8" x2="170.2" y2="164.6"/>
	<line class="st0" x1="203.2" y1="155.7" x2="169.9" y2="164.6"/>
	<line class="st0" x1="170.2" y1="147.6" x2="170.1" y2="164.4"/>
	<g>
		<path class="st0" d="M107.7,129.2l8.4,1.5l-3.7-7.7c-0.3-0.6-0.7-1.2-1.3-1.6c-1.9-1.5-4.7-1.1-6.1,0.8c-1.5,1.9-1.1,4.7,0.8,6.1
			c0.4,0.3,0.9,0.6,1.4,0.7C107.4,129.1,107.6,129.1,107.7,129.2z"/>
		<path class="st0" d="M122.1,155l8.4-0.9l-5.7-6.3c-0.5-0.5-1-0.9-1.7-1.2c-2.3-0.9-4.8,0.3-5.6,2.5c-0.9,2.3,0.3,4.8,2.5,5.6
			c0.5,0.2,1,0.3,1.6,0.3C121.8,155,121.9,155,122.1,155z"/>
	</g>
	<g>
		<path class="st0" d="M231.2,130l-8.4,1.5c0,0,3.7-7.7,3.7-7.7c0.3-0.6,0.7-1.2,1.3-1.6c1.9-1.5,4.7-1.1,6.1,0.8
			c1.5,1.9,1.1,4.7-0.8,6.1c-0.4,0.3-0.9,0.6-1.4,0.7C231.5,129.9,231.3,129.9,231.2,130z"/>
		<path class="st0" d="M216.8,155.8l-8.4-0.9c0,0,5.7-6.3,5.7-6.3c0.5-0.5,1-0.9,1.7-1.2c2.3-0.9,4.8,0.3,5.6,2.5
			c0.9,2.3-0.3,4.8-2.5,5.6c-0.5,0.2-1,0.3-1.6,0.3C217.1,155.8,217,155.8,216.8,155.8z"/>
	</g>
</g>
</svg>
